<?xml version="1.0" encoding="iso-8859-1"?>
<!-- Generator: Adobe Illustrator 19.0.0, SVG Export Plug-In . SVG Version: 6.00 Build 0)  -->
<svg version="1.1" id="Capa_1" xmlns="http://www.w3.org/2000/svg" xmlns:xlink="http://www.w3.org/1999/xlink" x="0px" y="0px"
	 viewBox="0 0 512 512" style="enable-background:new 0 0 512 512;" xml:space="preserve">
<path style="fill:#994C0F;" d="M474.043,38.127C409.692-26.209,286.001-7.181,198.271,80.549
	c-15.308,15.322-28.828,31.992-40.21,49.57c-3.838,5.933-3.018,13.755,1.992,18.75l121.65,121.65l48.712-6.264l147.188-187.5
	l1.139-33.232C477.154,41.738,475.746,39.83,474.043,38.127z"/>
<path style="fill:#713708;" d="M436.292,57.974c-62.813,21.383-109.449,74.648-122.349,139.735
	c-5.319,26.838-16.694,51.425-32.239,72.81l81.597,81.597c2.9,2.9,6.738,4.395,10.605,4.395c2.813,0,5.654-0.791,8.145-2.402
	c17.578-11.382,34.248-24.902,49.57-40.21c85.391-85.406,105.45-204.76,47.12-270.375L436.292,57.974z"/>
<path style="fill:#BF6015;" d="M313.894,198.113C228.486,112.72,109.16,92.648,43.519,150.995l-8.956,84.106l274.219,245.156
	l41.898-1.857c1.811-1.608,3.909-2.789,5.636-4.515C420.652,409.563,401.609,285.843,313.894,198.113z"/>
<path style="fill:#994C10;" d="M197.704,315.792c-65.087-12.9-118.352-59.537-139.735-122.349l-14.451-42.448
	c-1.785,1.586-3.693,2.994-5.396,4.697C-26.213,220.013-7.17,343.733,80.544,431.463C133.191,484.109,198.787,512,256.75,512
	c36.021,0,68.769-11.27,93.929-33.6l-12.614-38.388C317.129,376.306,263.483,328.829,197.704,315.792z"/>
<g>
</g>
<g>
</g>
<g>
</g>
<g>
</g>
<g>
</g>
<g>
</g>
<g>
</g>
<g>
</g>
<g>
</g>
<g>
</g>
<g>
</g>
<g>
</g>
<g>
</g>
<g>
</g>
<g>
</g>
</svg>
