<svg height="433pt" viewBox="0 0 433.90049 433" width="433pt" xmlns="http://www.w3.org/2000/svg"><path d="m280.601562 204.851562-76.703124 25.5 25.5-76.699218zm0 0" fill="#f8ec7d"/><path d="m423.898438 61.550781-143.296876 143.300781-51.203124-51.199218 143.300781-143.203125zm0 0" fill="#e48e66"/><g fill="#63316d"><path d="m379.800781 3.351562c-1.882812-1.882812-4.441406-2.925781-7.101562-2.902343-2.652344.019531-5.191407 1.058593-7.097657 2.902343l-143.203124 143.199219-.398438.398438-.199219.203125c-.265625.273437-.5.574218-.699219.898437-.203124.300781-.402343.699219-.601562 1-.011719.074219-.046875.144531-.101562.199219-.097657.300781-.296876.601562-.398438.902344 0 .097656 0 .097656-.101562.199218l-25.5 76.898438c-1.222657 3.578125-.292969 7.542969 2.402343 10.199219 1.890625 1.867187 4.441407 2.910156 7.097657 2.902343 1.085937-.019531 2.164062-.1875 3.203124-.5l76.699219-25.601562c.097657 0 .097657 0 .199219-.097656.316406-.09375.621094-.226563.898438-.402344.101562 0 .203124-.097656.300781-.097656.300781-.203125.699219-.402344 1-.601563.324219-.203125.625-.4375.902343-.699219.097657-.101562.199219-.101562.199219-.199218.097657-.101563.300781-.203125.398438-.402344l143.300781-143.199219c1.882812-1.882812 2.925781-4.441406 2.898438-7.101562-.019532-2.648438-1.054688-5.191407-2.898438-7.097657zm-160.101562 211.199219 14.101562-42.398437 28.300781 28.296875zm60.902343-23.898437-37-37 129.097657-129.101563 37 37zm0 0"/><path d="m356.199219 187.351562c-5.515625.015626-9.984375 4.484376-10 10v186.898438c-.046875 16.550781-13.449219 29.953125-30 30h-266.199219c-16.546875-.046875-29.953125-13.449219-30-30v-266.199219c.046875-16.546875 13.453125-29.953125 30-30h186.898438c5.523437 0 10-4.476562 10-10 0-5.523437-4.476563-10-10-10h-186.898438c-27.609375.011719-49.9882812 22.390625-50 50v266.199219c.0117188 27.609375 22.390625 49.992188 50 50h266.199219c27.609375-.007812 49.992187-22.390625 50-50v-186.898438c-.015625-5.515624-4.484375-9.984374-10-10zm0 0"/></g></svg>