<svg id="Capa_1" enable-background="new 0 0 512 512" height="512" viewBox="0 0 512 512" width="512" xmlns="http://www.w3.org/2000/svg"><g><path d="m464 96v416h-416v-512h320l28.75 66.21z" fill="#ecf2ff"/><path d="m464 96v416h-208v-512h112l28.75 66.21z" fill="#dae6fe"/><path d="m368 0v96h96z" fill="#c0d7fe"/><path d="m16 219.3h480v224h-480z" fill="#18b2ff"/><path d="m256 219.3h240v224h-240z" fill="#1588df"/><path d="m120.5 150.62h271v30h-271z" fill="#dae6fe"/><path d="m120.5 90.38h180.62v30h-180.62z" fill="#dae6fe"/><path d="m256 90.38h45.12v30h-45.12z" fill="#c0d7fe"/><path d="m256 150.62h135.5v30h-135.5z" fill="#c0d7fe"/><path d="m191.75 391.548h-15.013c-33.215 0-60.237-27.022-60.237-60.237s27.022-60.237 60.237-60.237h15.013v30h-15.013c-16.673 0-30.237 13.564-30.237 30.237s13.564 30.237 30.237 30.237h15.013z" fill="#ecf2ff"/><path d="m301.12 353.9c0 20.73-16.86 37.6-37.59 37.6h-43.65v-30h43.65c4.19 0 7.59-3.41 7.59-7.6 0-4.18-3.4-7.59-7.59-7.59h-15.05c-20.73 0-37.6-16.87-37.6-37.61-.43-19.31 16.91-38.03 37.64-37.61l7.48.01 36.14.02-.03 30-36.11-.02-7.51-.01c-4.05.58-6.57 1.67-7.61 7.61 0 4.2 3.41 7.61 7.6 7.61h15.05c20.73 0 37.59 16.87 37.59 37.59z" fill="#ecf2ff"/><g fill="#dae6fe"><path d="m301.12 353.9c0 20.73-16.86 37.6-37.59 37.6h-7.53v-30h7.53c4.19 0 7.59-3.41 7.59-7.6 0-4.18-3.4-7.59-7.59-7.59h-7.53v-30h7.53c20.73 0 37.59 16.87 37.59 37.59z"/><path d="m292.11 301.12-36.11-.02v-30l36.14.02z"/><path d="m365.911 391.498h-43.657v-30h43.657c4.187 0 7.593-3.406 7.593-7.593s-3.406-7.593-7.593-7.593h-15.048c-20.738 0-37.609-16.871-37.609-37.609-.428-19.315 16.915-38.033 37.641-37.609l43.62.031-.021 30-43.622-.031c-4.049.573-6.572 1.662-7.617 7.609 0 4.195 3.414 7.609 7.609 7.609h15.048c20.729 0 37.593 16.864 37.593 37.593s-16.865 37.593-37.594 37.593z"/></g></g></svg>