<svg id="Capa_1" enable-background="new 0 0 497 497" height="512" viewBox="0 0 497 497" width="512" xmlns="http://www.w3.org/2000/svg"><g><g><path d="m312.09 22.654h-116.74c-31.202 0-59.562 29.731-68.493 55.681h253.726c-8.932-25.95-37.291-55.681-68.493-55.681z" fill="#bed9fd"/><path d="m312.09 22.654h-30c31.203 0 59.562 29.731 68.493 55.681h30c-8.932-25.95-37.291-55.681-68.493-55.681z" fill="#9ec8fc"/><path d="m46.374 257.754h404.251c25.612 0 46.374-20.763 46.374-46.374v-60.798c0-25.612-20.763-46.374-46.374-46.374h-404.251c-25.611-.002-46.374 20.761-46.374 46.373v60.798c0 25.612 20.763 46.375 46.374 46.375z" fill="#bed9fd"/><path d="m371.515 66.276h-246.03c-49.098 0-88.899 39.801-88.899 88.899v51.609c0 49.098 39.801 88.899 88.899 88.899h30.677c10.28 0 20.451-1.864 30.165-5.229 16.73-5.795 38.443-9.295 62.174-9.295s45.444 3.5 62.174 9.295c9.714 3.365 19.884 5.229 30.165 5.229h30.677c49.098 0 88.899-39.801 88.899-88.899v-51.609c-.002-49.097-39.803-88.899-88.901-88.899z" fill="#407194"/><path d="m371.515 66.276h-30c49.098 0 88.899 39.802 88.899 88.899v51.609c0 49.098-39.802 88.899-88.899 88.899h30c49.098 0 88.899-39.801 88.899-88.899v-51.609c.001-49.097-39.801-88.899-88.899-88.899z" fill="#365f7e"/><path d="m323.304 474.346h-149.608c-33.028 0-59.802-26.774-59.802-59.802s26.774-59.803 59.802-59.803h149.608c33.028 0 59.802 26.774 59.802 59.802s-26.774 59.803-59.802 59.803z" fill="#bed9fd"/><circle cx="323.304" cy="414.543" fill="#407194" r="59.803"/><path d="m323.304 354.741c-3.325 0-6.583.284-9.76.806 28.383 4.661 50.042 29.294 50.042 58.997s-21.659 54.335-50.042 58.997c3.177.522 6.435.806 9.76.806 33.028 0 59.802-26.775 59.802-59.802 0-33.029-26.774-59.804-59.802-59.804z" fill="#365f7e"/><circle cx="323.304" cy="414.544" fill="#5392f9" r="19.52"/></g><path d="m248.5 250.721c-3.038 0-6.075-.782-8.785-2.347l-42.081-24.295c-5.419-3.128-8.785-8.958-8.785-15.216v-48.591c0-6.257 3.366-12.088 8.785-15.217l42.081-24.295c5.42-3.13 12.151-3.129 17.571 0l42.08 24.294c5.419 3.129 8.785 8.959 8.785 15.217v48.591c0 6.258-3.366 12.088-8.786 15.217l-42.08 24.295c-2.709 1.565-5.747 2.347-8.785 2.347zm0-117.314c-.444 0-.888.115-1.284.343h-.001l-42.081 24.295c-.793.458-1.285 1.311-1.285 2.227v48.591c0 .916.492 1.768 1.284 2.226l42.082 24.296c.793.458 1.777.458 2.57 0l42.081-24.295c.793-.458 1.285-1.311 1.285-2.226v-48.591c0-.916-.492-1.769-1.285-2.227l-42.081-24.295c-.396-.23-.841-.344-1.285-.344zm-5.035-6.152h.01z" fill="#ddebfd"/><path d="m248.5 192.067c-4.143 0-7.5-3.358-7.5-7.5v-80.361c0-4.142 3.357-7.5 7.5-7.5s7.5 3.358 7.5 7.5v80.361c0 4.142-3.357 7.5-7.5 7.5z" fill="#db387e"/><path d="m178.912 232.25c-2.592 0-5.113-1.345-6.502-3.751-2.071-3.587-.842-8.174 2.745-10.245l69.595-40.181c3.586-2.071 8.175-.842 10.245 2.745 2.071 3.587.842 8.174-2.745 10.245l-69.595 40.181c-1.18.681-2.47 1.006-3.743 1.006z" fill="#eec06b"/><path d="m318.088 232.25c-1.272 0-2.562-.324-3.743-1.006l-69.595-40.181c-3.587-2.071-4.816-6.658-2.745-10.245 2.07-3.587 6.655-4.817 10.245-2.745l69.595 40.181c3.587 2.071 4.816 6.658 2.745 10.245-1.389 2.405-3.91 3.751-6.502 3.751z" fill="#9cd169"/><g fill="#407194"><path d="m212.967 405.139h-8.709c-4.143 0-7.5-3.358-7.5-7.5s3.357-7.5 7.5-7.5h8.709c4.143 0 7.5 3.358 7.5 7.5s-3.358 7.5-7.5 7.5z"/><path d="m212.967 438.948h-8.709c-4.143 0-7.5-3.358-7.5-7.5s3.357-7.5 7.5-7.5h8.709c4.143 0 7.5 3.358 7.5 7.5s-3.358 7.5-7.5 7.5z"/></g></g></svg>