<svg id="Layer_1" enable-background="new 0 0 512 512" height="512" viewBox="0 0 512 512" width="512" xmlns="http://www.w3.org/2000/svg"><g><g><g><path d="m353.224 362.192h-121.058l21.812-94.925h77.434z" fill="#efefef"/><path d="m391.135 354.466h-196.879c-4.267 0-7.726 3.459-7.726 7.726s3.459 7.726 7.726 7.726h196.879c4.268 0 7.726-3.459 7.726-7.726s-3.459-7.726-7.726-7.726z" fill="#ddd"/></g><g><path d="m73.39 278.52v-246.391c0-12.055 9.772-21.827 21.827-21.827h394.955c12.055 0 21.827 9.772 21.827 21.827v201.51z" fill="#3498ac"/><path d="m512 233.64v-201.511c0-12.055-9.773-21.827-21.827-21.827h-30.905c12.055 0 21.827 9.773 21.827 21.827v246.391z" fill="#288a9a"/><g><path d="m73.39 233.64v44.865c0 12.063 9.766 21.842 21.812 21.842h394.985c12.047 0 21.812-9.779 21.812-21.842v-44.865z" fill="#f7f7f7"/></g><path d="m481.095 233.64v44.865c0 12.063-9.766 21.842-21.812 21.842h30.905c12.047 0 21.812-9.779 21.812-21.842v-44.865z" fill="#efefef"/></g></g><g><g><g><path d="m0 455.418v-277.894c0-4.509 3.655-8.163 8.163-8.163h214.757c4.508 0 8.163 3.655 8.163 8.163v277.894c0 4.509-3.655 8.163-8.163 8.163h-214.757c-4.508 0-8.163-3.655-8.163-8.163z" fill="#ffe66b"/><path d="m28.362 197.622h174.359v216.401h-174.359z" fill="#3498ac" transform="matrix(-1 0 0 -1 231.083 611.645)"/><path d="m171.816 197.622h30.905v216.401h-30.905z" fill="#288a9a"/></g></g><g><path d="m177.277 486.1v-191.995c0-8.615 6.984-15.598 15.598-15.598h84.352c8.615 0 15.598 6.984 15.598 15.598v191.995c0 8.615-6.984 15.598-15.598 15.598h-84.352c-8.614 0-15.598-6.983-15.598-15.598z" fill="#c9f0ff"/><path d="m277.227 278.507h-30.905c8.615 0 15.598 6.984 15.598 15.598v191.995c0 8.615-6.984 15.598-15.598 15.598h30.905c8.615 0 15.598-6.984 15.598-15.598v-191.995c.001-8.614-6.983-15.598-15.598-15.598z" fill="#b5eaff"/><g fill="#3498ac"><path d="m123.58 430.918h-16.077c-4.267 0-7.726 3.459-7.726 7.726s3.459 7.726 7.726 7.726h16.077c4.267 0 7.726-3.459 7.726-7.726.001-4.267-3.458-7.726-7.726-7.726z"/><path d="m241.863 294.108h-13.623c-4.267 0-7.726 3.459-7.726 7.726s3.459 7.726 7.726 7.726h13.622c4.267 0 7.726-3.459 7.726-7.726.001-4.267-3.458-7.726-7.725-7.726z"/></g><path d="m177.277 468.628h115.548v17.676c0 8.502-7.003 15.394-15.643 15.394h-84.262c-8.639 0-15.643-6.892-15.643-15.394z" fill="#3498ac"/><path d="m261.92 468.628v17.676c0 8.502-7.003 15.394-15.643 15.394h30.905c8.639 0 15.643-6.892 15.643-15.394v-17.676z" fill="#288a9a"/></g></g></g></svg>